<mxfile host="65bd71144e" scale="5" border="0">
    <diagram id="NaFvIo6zi5eSKzrH1Ncz" name="Page-1">
        <mxGraphModel dx="973" dy="472" grid="1" gridSize="10" guides="1" tooltips="1" connect="1" arrows="1" fold="1" page="1" pageScale="1" pageWidth="1169" pageHeight="827" background="#ffffff" math="0" shadow="0">
            <root>
                <mxCell id="0"/>
                <mxCell id="1" parent="0"/>
                <mxCell id="2" value="Control Plane" style="rounded=0;whiteSpace=wrap;html=1;fontStyle=1;strokeWidth=2;" parent="1" vertex="1">
                    <mxGeometry x="320" y="384" width="120" height="60" as="geometry"/>
                </mxCell>
                <mxCell id="11" style="edgeStyle=none;html=1;exitX=0;exitY=0.5;exitDx=0;exitDy=0;entryX=1;entryY=0.5;entryDx=0;entryDy=0;" parent="1" source="10" target="2" edge="1">
                    <mxGeometry relative="1" as="geometry"/>
                </mxCell>
                <mxCell id="34" value="&amp;nbsp;report&amp;nbsp;" style="edgeLabel;html=1;align=center;verticalAlign=middle;resizable=0;points=[];fontSize=12;" parent="11" vertex="1" connectable="0">
                    <mxGeometry x="-0.0139" y="1" relative="1" as="geometry">
                        <mxPoint x="8" y="-1" as="offset"/>
                    </mxGeometry>
                </mxCell>
                <mxCell id="42" style="edgeStyle=none;html=1;exitX=0.5;exitY=1;exitDx=0;exitDy=0;entryX=0.5;entryY=0;entryDx=0;entryDy=0;" parent="1" source="10" target="24" edge="1">
                    <mxGeometry relative="1" as="geometry"/>
                </mxCell>
                <mxCell id="44" value="watch" style="edgeLabel;html=1;align=center;verticalAlign=middle;resizable=0;points=[];fontSize=12;" parent="42" vertex="1" connectable="0">
                    <mxGeometry x="-0.0229" y="-4" relative="1" as="geometry">
                        <mxPoint x="4" as="offset"/>
                    </mxGeometry>
                </mxCell>
                <mxCell id="43" value="&lt;font style=&quot;font-size: 12px;&quot;&gt;&amp;nbsp;deploy&amp;nbsp;&lt;/font&gt;" style="edgeStyle=none;html=1;exitX=1;exitY=0.5;exitDx=0;exitDy=0;" parent="1" source="10" edge="1">
                    <mxGeometry relative="1" as="geometry">
                        <mxPoint x="790" y="414" as="targetPoint"/>
                    </mxGeometry>
                </mxCell>
                <mxCell id="10" value="Piped" style="rounded=0;whiteSpace=wrap;html=1;fontStyle=1;strokeWidth=2;" parent="1" vertex="1">
                    <mxGeometry x="570" y="384" width="120" height="60" as="geometry"/>
                </mxCell>
                <mxCell id="13" value="" style="edgeStyle=none;html=1;startArrow=none;" parent="1" source="12" target="2" edge="1">
                    <mxGeometry relative="1" as="geometry">
                        <mxPoint x="380" y="520" as="sourcePoint"/>
                    </mxGeometry>
                </mxCell>
                <mxCell id="14" value="view console" style="edgeLabel;html=1;align=center;verticalAlign=middle;resizable=0;points=[];fontSize=12;" parent="13" vertex="1" connectable="0">
                    <mxGeometry x="0.1" y="-4" relative="1" as="geometry">
                        <mxPoint x="-2" y="9" as="offset"/>
                    </mxGeometry>
                </mxCell>
                <mxCell id="24" value="" style="shape=image;verticalLabelPosition=bottom;labelBackgroundColor=default;verticalAlign=top;aspect=fixed;imageAspect=0;image=data:image/png,iVBORw0KGgoAAAANSUhEUgAAA44AAAF8CAMAAAC37BWdAAAAY1BMVEX////wUDPwUDPwUDPwUDPwUDM9LQA9LQA9LQA9LQA9LQA9LQA9LQA9LQA9LQDwUDPwUDPwUDM9LQDwUDM9LQA9LQDwUDPwUDPwUDM9LQA9LQDwUDM9LQA9LQDwUDPwUDPwUDPvkRCLAAAAIXRSTlMAIFCAsMAQQICgwND/kHCQ4P8wQCDgMBDQ8FDwYLBwoGCQsySBAAAWkUlEQVR4Aezdh2KDvA5AYXUhA8qGtNB0vP9L3vvv1RlEY0c53zscpi3Lmbq6vrm9+9XtzfWV4BJVmuqmtb+0zWKplZwYrlbrzT+tV5dWJLaL1t7VLrZyOtjdbd6628nFQJd6+0S/6AQnsb/bvO9uLxcBXW1fqgnyFG42H7uR+FAl+5a6Evys+4fNZx7uJThob980jIKftF9vPrfeS2hIdoRa8HP2j5uvPNJjaLUdpakkC2qkR2p8q6XHTDXSIzW+1UoG1EiP8S1tgloyoEZ6jE5tkoNkQI30GFvV2yRDJxlQIz2GlmyiJ8mAGukxsm6wqVSyoEZ65KvqW41kQI30GFc12HRbyYoa6ZGfHPzsyFMjPcbXmsMgGVAjPUbVmcso86NGeuRZNfPTKjXSI57MpRfMVSM9YjCfTjBPjfSIzpxGwTw10iPUnJJgnhrpEcmcakH+GumRHFknN2uN9IjGnFrBXDXSIzl6CXw1BuwR5EiNrh5BjtQYskeQIzU6egQ5UmPgHkGO1OjtEeSo6UsdNZ6kR5BjbV/S8DXSI57MqT3RRUGp8SQ9gkVyfZgcHTXSI5ZFLCG3ryk1nqJHsMGqipOjo0Z6RGVOKn56UTlefVQjPaI3n0r8DheV4/3DptweweiqFCFHevTDoYAvOU+l5EiPYOxxW0qO9AgOBbAQOdKjHw7Zn1W3peRIj+BAuTFIjvToh0XuMXKplBzpERxG3gTLkR7hkDLPWB2C5UiPcKh6m2ToZA6dRcuRHuGgNslSZnHIkCM9BsPXnCeZxyJDjvQYCzM62krm0QbMkR7hULW+F0eHyjLkSI+R0GO/lZkcYuZIj3ConjxPqg518Byv7unxR/H7sa5kNkPsHPePD/Q4AbS3b+lHmc/W/DkWPheHHidBGuxLQ6py/GPRs62RHidClXpHjFP0/hzLrpEe4TA+DfaRp4PMbGv+HIuvkR7hMKbG3mjSKPOr/TmWXyM9wqnTZUp184s6paV2ufc+61nWGLJHMBlEz7tGekT5Wn+OBdcYtEews0vPvUZ6ROEaf47l1hi2R7DtWc+txrg9gl2WGqBGekS5RjuCBqgxSI9gYpYGqDFIj2CepMaokR5RpK0dRQPUGKRHMA1Eo9RIjyhPbcfRADUG6REcY6dxaqRHlGW0Y2mgGukRJdkO/hwLrTF+j6BG01A10iNKoRNqNI1VIz2iDAebQgPUGKRHcPa5BqhxUo/r25vr3W+eb+4e6XFG2LY2jZ5hjf4eX16v5F/2qzU9zgTJptLSa3T0eJzdCz3OANrbZBqlRn+PcvVCj3DSxhw0To3+HmX3QI9wGBtzSZFq9PcoN/Q4EbrUm9dTmqArtUZ/j7tHejweumVruWixNfp73K/p8Sjoxrq3jDR7jf4e/csE6BGdpqfeMtOSa/T3yP3RYav6//buBbFNHIrC8MnDSIgLMRjigKF4/6ucdt4zaRL7Bqu60fkX0CdfJARIs/9RHf7I/9HknEPU/Hb1+Ek+VJJEzoBGjUf970+PbvLlx9fnGILipChV3a0veEklZ0Kj3uN9S4+X108+DHJdoWwcbpsjx7Q06j0+0eNlOb+Moi3UU4Gb1ZBjAhoVHlW3j/TYN8uY8AXpyTE1jWqPh/bd6LGrK5GkL8hAjslpVHvc0eNH758kzrEix/ga9R6VwyM9zkFSy+m0kKNeo97jdsMjPRZ+ELHAsSDHJDW2e2g6t6+ix74cRWxwdOSYpMb2G1Sd6PEVRhGxwnEmxyQ1tndQtbb0+O8KP4ohjp4ck9T4gg1ezaHHeRSxxHEhxxQ1tk/QdWz/jh67IGKLYyDHFDW291C2p8fXMz8zHEdyTFFj+wxljy09/l5fiT2OQo4pamyh7aGlx9d3jUY4OnKMrjECR3qsRQxynMgxSY07aLtv6RFFEJMcPTnqNSbJ8dDSY1eJTY41Oeo1ZsfRiMduFKMcAzkqNWbAUeeRGvUX5ECOKWpsT/GXciJ7pEZxeivkqNdocGVV75Ea9RdkT45pamzvEngNQOWRGvUXpCPHNDXqX5J7aXP2WFRimGNDjmlqbB/0r5Dn7DGIZY6eHLUaE11avW9z9liLaY6BHBUao6Tf+jhfj5OYihzNaGzP+lvHXD32o3GOQo6Jamx3+j9irh6DGOfY1SM5pqdR86iDHhuxzhHAVI7kmKDGdoVhj5yq6i/IeSHHpDQqhkd6XOSLcASKOcS/4NGX8WFZ0KgYHunRiWGOr+ubKjZHFKLLGdSo6ECPl1eJjaoQSu+bCw457+shLkeE+BztaGz3R3q8tFm2aQyh9n+0hEE2KYRQXybwvaVWcoyvUTldpccN5FTl7F55mOtKlNV+dq7DJ5sCOaag8Udneow0OC5zjzcq5kXHG9tUkmMaGukxzuA4+B7v1qtO+vDYpkCOKWj80TM93npZdZj1R+9EuU4nckxAI8fHGM8cR4/LKpbroRfYJHKMr1F90CM99qIu9Li4aZQrq7FJgRzT0PijxyM9vp8XbfWN92915Ji2RkX7e3q8zULOfOu9P4aCHBPXqGh3R49v18XSqPDoyTF5jYrWAz2+VR1NI1AMclVjT44GNeo/R6bHQVQ1UXaOLMnRrEYFx7vsPfaiaon0lXNPjlY1Kjg+rLl7bETTWETCUZKjWY0Kjm3uHhfRNEUbjXtyNKtRwTF3j6MoCvHe6S7J0a5GBce8PXbRL6FePy0mR2saFRyz9tjEHRwVw2NDjoY1Kjjm7LEURXPMD0gqcrSsUcExY49Brm+M+6SzI0fLGhUc8/Uoisq47wHV5Ghao4Jjrh57UTTF/SB4IEfbGhUcM/XoRFHsIbknR9saFRzz9Ngo11WjAmnI0aZGBce8PXq5Ph/7I5KFHG1qVHDM2+Mi1zfFHpNHcrSpUcExb49Brq+Lfsfak6N5jQqOFj3G5xh/PXciR5MaFRzz9ijXN8b/bT05mtSo4Ji1Rw3HEP+3XcjRvkYVR/seLXAc9b8lOdrRqOCYt0c9x6hCyNG+RiVHCx7JkRwNaFRwzNqjhqNHfI49ORrWqOCo8HjaPTwcfnT/8LSz6VHDcUF8jo4crWpUcFR43H37n5TD0/5GHrmySo72NWo56g8yv3+M75EcydGYRgVHnUfcPcb3aJBjL68ix3w0KjgqPeLwYsmjhuMQ4StLcoyq0QBHrUc8WfIoiiJ8ZUmOcTUa4Kj2eH+y41EUdRG2ryPHuBoNcFR7fN6b8VjJ9c0RDs0ix8gaDXBUezy+WPEY5PrqCCs55BhbowGOeo9WxsdFrq+Kv0FPQY4fdGdJo5ajfr56suHRi6I++gGvIMfI87E0Oao93rcbtz8mc0RHE/kxBznql/NtcjTwvOMlmX1Wq9jHggRyfL9DmwtHtcd9u3EP2L5CNHU3XMghR0X7fDi2ayo/sZ6xfYMoKiPr8OT4buc2I45aj4+x/hLxzyLvoW7a/GaVHPdZcVR6vGu37pDI0qoEaCuGra9Ycjy3eXFs1y87PDpRNUUdjfFe5PiYG8c9NN1buHsUVWMfcTAeyPG9jm1uHJ8SmdM/YfOCqKoKKJpFU0mO73WfHcfnRJ497rF5jehaommUmRzf6yk3jvtkfm7dYes6UVZur5HHrWra5cZxhbJ2684JPHnUzldL0TXgvcjxlBvHb1C2M/BmTi3aBofL6ypRVpPju7W5cTxA2WrgUUcn+uoCl1V4UTeR478jxyOUPRjgiEr0DTMuaR5E3Yh/R47kCG33FjjO8pmGpsD7Fc0rjOq5KjmS4ymdD19O2L5ilM+1zO+InEr5XB05kuM2Q9LBwuiIWj5d8FOPVzm/yGerkBNHciTHXrYpBO/95L43eV+HQbZoJscP2mfG8eWLc0QpyTbig8jxkUs5v4rjE25RL8nmyfGjHsjxV/1LnZHX8DgW5PhRz7lxfE6G4zNuUjGaHRzJEafMON6n8pLcHjfK2x0cyfEpM45PqfzcWnGrKkmxGR9HjneZcXxJZVZ/wK3qJMECyPGSdjlx1L+0+i2Buarl6WpHjhd1yIzjGape4q+r6qusruOQI9a8OO6SmNPvccv6UdKqwoWR4/GUFcf2LoUVrwNu2iRJNXbkeHH3eXFcE/iR9YQb562uqpIjHrLi2N798n+hlyNuXSnpVIMcr2nNiuOj/jza+OetqgtWn3GQI9YcOOpv3B7taURRSRpVBTkqPGbAUXn68L1Bjcl4VGgkR6wZcWxX/VTVjEagCFYXVckRawYcVQ/hjy8GNKa6nlN1IEdVaw4cFR5XsxoBb3WmSo5YM+J4es5BIzCNRjWSI9Z8OLancw4agb6SX1YJkGMEj8Y46k/rOO6sakxgwtqAHGN5tM+xXY/4oOe9AY2KE25iNDqQYzyP9jm2+wPe6/jQpqhRUTNK7JYC5JiDRz3H1z3e4c3O+0Q1Kip8XJDjjC0iR6yGOSpan/UY42vU15gcGskRq2WOil6+vRoin59OLTVqGxyQJ0ePCB6tcVSIfDof8EfHw7dHvcVUNZZm56nkiNU+R5WZ3Uv7uahx9AXy5VgjP496jqrsayyiaRx8AWTMMSAvjwqO1FhJnKoZQNYcK6TgkRypcSw7IHeOgqgeyZEa3znDnBy7fDwqOFJjd3uN498WyXFGNh4VHKlxvNSU6Kpqh78jxxLmPSbAkRqLfq6DXNUYvCvw78hxgHGPCXCkRpnwe93klyAfF0rveryKHKUz7jEBjtQY8J+cm71fQgiD/KsqhOB94xzejBxrmPaYAEdqHHtsEzmOyMGjgiM1ql+1JMdatM2WPSbAkRorkONmG5oMRT4eFRypUX+xkqOiGhl4VHCkRu31Q46N6JusekyAIzWOBTm+ysU7BqFvOtMe1RypMcIPc3KUccKlFfOimJ6sX5UjNQaQ4+sK+VR1cdm4GJSv8qxfkyM1jj05/iz5XMP8EcW5HPSv8mA1x5Ea9Y8cybGSTzbWbyJzTTl8drv29Qty5PeNFcjxZke5j4ufHP6pcM77MGzzv7Aa4EiNqLa4TsnRy3YN4XvyXr0BjwqO1Fhu8siaHGeJ2QyzHk/f3uRIjbO8SvPIkRw7idkCox5PD0e80fMue43duM0PZXKERK1I16P+DLjzKV+NihvHwXWZcJyi/U7KJhj0eDrg/Y6PWWv0oil8z3/Pfa9A2o3RNuuvJWYl7Hl8OeLDzhlr7EfZoiqEUHvvZ+dcj6Ry8e7NJonZCHMeV1zS8ylXjSjlJg0hhNJ7PznnYHTP2A7XVkjUnDWPK6D3mIPGXnQpdP6Bs0DUumYUdaUrkr55rGHL4wroPeagEaXEr/pBc3YdblnvGr98XscYSj9drrKRmA0w5fERl/ecpcZCfmk/XG7NsnO+DpVsXFj87PqbTjYU9ZY8vhxxRecMNWKWFBpC3Wwwi518GcZbD+zev2ugkpg1MOTxGVf1mJ9GBEmnIfjpUyYlTj6d2WoFOx4fcF3HU3YaC0mtoWw6yxwLiVphxuMLru0+N42YJMWGci6sckQpMZthxeMBV7fLTCO8pFpoepscncRsgRGPO1zfITONCJJwYS4MckSQmMGIxwMU7aJpJEfFWeUmODqJ2WTD4x6aznlpxCipF5w1jggSsRImPH6DqlNWGiEGCs4Yx04iNsKExzuoWrPSCDFR6E1xRC0R6yx43EPXOSuNECN5UxyLQeJVw4DHJ+g6ZqURlRip6gxxhJN4DTDg8Qxl+5w0IoiZGkMc4SVevQGPz1D2mJNGLGKnsrDDEUGi1SB9j9D2kJNGeDFUVdjhWFQSqwrpe9RzzEkjJrHl0QDH6B4Dkve4g7ZDThrRizGPBjjG9RgcNmo1ztG+RqAy5tEAx5geyw7btRrnaF8jarFVaYcjikVu2uALbNpqm6N9jejFWI0BjlFWypYJyuJ73EPbOSuNQBBbjZ0hjnDDrQbGHrdoNb2yal8jnBirssQRRR3/s7MEPd5B2Zq2Rg6P0ljiCHRhY4sTABjzeICyXWYa0Y9iq7EwxRFwm4EcVBYT8PgAZblpBBoxljfGEXClfL7Kd4jRmtDS6iE7jUBpbni0xhEomir+3noJeTxC1VPyGvkugHh7HAH0SpFVOffQl4bHe6jaZ6gRhTGPQxIcFRVTXckVDYt3BfSl4/ERmp4taOR8dUqGoyLXlGG86NQS6EvO4x0UrRY0cj1nwU/zcdqEiXPe1yGE4fUpmHMCx0evKaytHk+ZagS6SgxVgNnyeDri6h7sa9Q3j2KmCcaixydc290pY41A0QxipBLWoserNTwa0cgVnQHWoscXXNc9NZqph7Xo8Uk/VaVG3jyy9dfttnp8oUY7ediJHhUoVmo0VMBXjh6pMZW4lkOP1GgsmIwez/i4444ajdXhi8b11ed95hprMZeDzejx5Vn/alwWGmex1wyj0WO7HvFm9/vcNbqrdlV0zs3e+yWEwCcd9KhD8nSHn3betblr7Ef9w3f0zrnGex9CGMiRHi/u8fxqiHx+2rfZa0S1IYHOOee9L0MIIznS47vtHg53+LPDef1hkRrrGz56d87NN9JZIr3oUUFmt9u9tH9GjU65gZui4gfOOlR8LYcefxo1FkP8Rwvo5roiR3qkRv1UtcamFfNCjvRIjbrz5IYCW9eX5EiP1PhP4dc+du8rcvwzeqRG98uv/pIc6ZEar8XgcKMW0VXDfvRIjao7xwq3qhj5GgA9UiMAn8IL254c6ZEaAQwp7PpdiKoGXyl6pMYujXWTit870iM1wqcxM1zIkR6pESGNXU0998qhR2pEIkOR505y9EiNXSJb8Ifs3wKgR2rEbJmjxxeKHqkRPpHJKs/ooEdqxJLGxd/xBCt6pEaENF4QrbmSQ4/UeA3HCjerGLlTDj1SI4YktuD3vHWkR2oE5IqWG27yypcA6JEakcQ7aUE0LbAfPVKjmuNY4BaVPKCDHqnxao5SFeloHPG1okdqxHClxx4bVwRuzEGP1Ki7bRsdNm0aRYTvANAjNepWUcoCm9Uv3NORHqnxMzduo98IZFfy4GN6pMZPP4AvP4+hmCseB0CP1PifJtE11A76+maR/8bBkR6pEb2oG4N3Ba7ONeUgr+IrAPRIjcAon2oIvnE9LqlzjQ9vSuSyKj1SIxbZpBCC/97s/lfjv7eEUPEQcnqkxg+bxV4VGD1+RY3oxV4dGD0a0KgoiLU8GD2moZGz1QBGjzY0KhrFVEMBRo9fVSO8WGrswOjxy2pEMYqhJjB6TEMjh8cZzEIrNaobqJEl4pEa4aiRGfGo0MjpKjWylRq1VdTIEvFIjSgGPuFgaXikRqAbJe2qHowek9BIj2UBRo8paKTHcUZG0SM1At0giRZ6ZBU9UiNQVJJiYwNmt5UatdUcGlkiHqkRcKOk1TAhz+iRGoGi5Dx149hKjepclQxGX4B9hVZq1DcPxMhieaRGAyCHmRjpkRr/bK7kF7Y4MHqkxn9ypfyaBt+D0eN/NbJiDhK7se7A6PFnGlnfxBQ51A6MHt/WyIq5HCVCoenA6PFDjaxrlpuSrOqpAKNHary0fq6DKNIf2srokRrfq5v8UslGVYufejB6/IxG1rvGL2EUbUMo/dSB0eN2GlnhXOP9EkK4DGEovZ9cD0aPN9dInH80+3/nfvSaIKNHamTMikdqZCxCKzUylkwrNTJmxyM1Mhath/bd9tTIWLzuT+9ofDyCMRav42P7Rqd7MMbidtj9FOPDEYyx6D2vp/a/vZx/FUbG2OFhd/qL4nq+A2NfoN8AmYeH6ATdH6kAAAAASUVORK5CYII=;" parent="1" vertex="1">
                    <mxGeometry x="590" y="510.00000000000006" width="80" height="33.41" as="geometry"/>
                </mxCell>
                <mxCell id="51" value="" style="group" parent="1" vertex="1" connectable="0">
                    <mxGeometry x="790" y="380" width="110" height="176" as="geometry"/>
                </mxCell>
                <mxCell id="37" value="" style="sketch=0;aspect=fixed;html=1;points=[];align=center;image;fontSize=12;image=img/lib/mscae/Kubernetes.svg;" parent="51" vertex="1">
                    <mxGeometry x="0.5" width="50" height="48" as="geometry"/>
                </mxCell>
                <mxCell id="38" value="" style="editableCssRules=.*;shape=image;verticalLabelPosition=bottom;labelBackgroundColor=#ffffff;verticalAlign=top;aspect=fixed;imageAspect=0;image=data:image/svg+xml,PHN2ZyB4bWxucz0iaHR0cDovL3d3dy53My5vcmcvMjAwMC9zdmciIHhtbG5zOnY9Imh0dHBzOi8vdmVjdGEuaW8vbmFubyIgd2lkdGg9IjM2NS40NjQ5OTY3NzA0MjQ5MyIgaGVpZ2h0PSIzNzkuMjIyOTk0NDYzNTc3OTUiIHZpZXdCb3g9IjAgMCA5Ni42OTU5OTkxNDU1MDc4MSAxMDAuMzM1OTk4NTM1MTU2MjUiPiYjeGE7PHN0eWxlIHR5cGU9InRleHQvY3NzIj4mI3hhOwkuc3Qwe2ZpbGw6IzQyODVmNDt9JiN4YTsJLnN0MXtmaWxsOiNhZWNiZmE7fSYjeGE7PC9zdHlsZT4mI3hhOwk8cGF0aCBjbGFzcz0ic3QwIiBkPSJNMjkuNzk0IDEwMC4zMzZMNDYuOTIgNTAuMTY4aDQ5Ljc3NnpNMCA5OS42NzFsMTIuOTc2LTQ5LjUwMkgyOS4yMkwxNi44OTcgOTIuMDU0eiIvPiYjeGE7CTxwYXRoIGNsYXNzPSJzdDEiIGQ9Ik0yOS43OTQgMEw0Ni45MiA1MC4xNjhoNDkuNzc2ek0wIC42NjZsMTIuOTc2IDQ5LjUwMkgyOS4yMkwxNi44OTcgOC4yODN6Ii8+JiN4YTs8L3N2Zz4=;" parent="51" vertex="1">
                    <mxGeometry x="60" width="50" height="50" as="geometry"/>
                </mxCell>
                <mxCell id="39" value="" style="sketch=0;points=[[0,0,0],[0.25,0,0],[0.5,0,0],[0.75,0,0],[1,0,0],[0,1,0],[0.25,1,0],[0.5,1,0],[0.75,1,0],[1,1,0],[0,0.25,0],[0,0.5,0],[0,0.75,0],[1,0.25,0],[1,0.5,0],[1,0.75,0]];outlineConnect=0;fontColor=#232F3E;gradientColor=#F78E04;gradientDirection=north;fillColor=#D05C17;strokeColor=#ffffff;dashed=0;verticalLabelPosition=bottom;verticalAlign=top;align=center;html=1;fontSize=12;fontStyle=0;aspect=fixed;shape=mxgraph.aws4.resourceIcon;resIcon=mxgraph.aws4.ecs;" parent="51" vertex="1">
                    <mxGeometry x="1" y="53" width="50" height="50" as="geometry"/>
                </mxCell>
                <mxCell id="40" value="" style="sketch=0;points=[[0,0,0],[0.25,0,0],[0.5,0,0],[0.75,0,0],[1,0,0],[0,1,0],[0.25,1,0],[0.5,1,0],[0.75,1,0],[1,1,0],[0,0.25,0],[0,0.5,0],[0,0.75,0],[1,0.25,0],[1,0.5,0],[1,0.75,0]];outlineConnect=0;fontColor=#232F3E;gradientColor=#F78E04;gradientDirection=north;fillColor=#D05C17;strokeColor=#ffffff;dashed=0;verticalLabelPosition=bottom;verticalAlign=top;align=center;html=1;fontSize=12;fontStyle=0;aspect=fixed;shape=mxgraph.aws4.resourceIcon;resIcon=mxgraph.aws4.lambda;" parent="51" vertex="1">
                    <mxGeometry x="60" y="53" width="50" height="50" as="geometry"/>
                </mxCell>
                <mxCell id="41" value="" style="shape=image;verticalLabelPosition=bottom;labelBackgroundColor=default;verticalAlign=top;aspect=fixed;imageAspect=0;image=data:image/png,iVBORw0KGgoAAAANSUhEUgAAADMAAABJCAYAAACQGB6NAAAACXBIWXMAAAsSAAALEgHS3X78AAADNklEQVRoge2azXEiMRBG31IbACEMGdgR7KBSADgDiAB81sH2QWfYCCCDdQAqwUZgMoAQCGEP0qxn2QFmkObHVfMudkFZ9Ofpbn1qAT09PT09XUMJkyhh0rbjiMEASICtEmarhEnaDSeMQe73FDgoYV6VMMOW4gliUPDaC07UtOFYgikSAzAE1j710gbjCeKSmIwUV0/rr1BPt8RkTIEPJcxrfaGEU1YMuNR7UcIclDCTugIKoYqYjAT41cVWfo+YjJSOdb0QMRkJQNupp4SZfI+43lwJswRm2spdxHWvooR5AJZAGlMMfFqjHU7UMfL6f/EuZYnrtECcNCsixdXTsg5rpIRZAAdyQqA+MRkLIjYJJUyqhDngnsh//6TYaVZEZo3mwPM99eS3gCVwtck0ISbjAVdPG+CtTD35FF3gzO9N6k6zIqZ4a3StnnxqHigpBJyYU2h0dzDEBflxvj/5utgCawrq4hoDbeUeGAHvsSKtQIK3RgDeyG5x3bAyAwBt5VFb+QSMgWOEIKuS+p8/Qhb5p2a0lTtt5Qh4pp30C6KwAWgrV7jU2zQaTSAXu5m28qStnAGPwK6xiAK42Zq1lXtt5Rh4op16Kk3pfUZb+Y57Sm90tJ4qbZo+9V5xotpo5Ve5y854K/Lkx1CdGRgGebMz09h26p1ierMZrp7aYAM8xhST+npq0hrtgLG2cqatPMYUM/cHpyRnjfYR189zwh3Lx/lUj30ESPDXI8BRW/lIfGv0Boy0lZvzN+o6nKW44/LKf/gGZ/kXAWvuuDEkaWQGAEy0lc/cZ42OuLoY3zqdNnHSzGYAH8CwgjU64WYGo7JzgyaPzdkMYA3s/VHjkjXa4OpiVeUDmhxoZEyBiRLmJ7Dis54AfuOexl1d8FuM6AB8B0sr/tkRF3yUfamN6UyehNwMIJS2xWSkMRbpipgo9GK6Si+mq/RiukpMMW3PAKKKaXMGAET0Zhllr+zO0VYGxxJdTIafqS1x1v8mMcTU1gD89UgdM4CL1N7NctcjlQ5a91BbmhWR/2rI+Xudrplr+EvZJf5LRPCFxWT4C9k5btDR3QZQhtz1yKbNOHp6enp6esrwB0qdGdInefpLAAAAAElFTkSuQmCC;" parent="51" vertex="1">
                    <mxGeometry y="103" width="51" height="73" as="geometry"/>
                </mxCell>
                <mxCell id="54" value="" style="edgeStyle=none;html=1;endArrow=none;" parent="1" target="12" edge="1">
                    <mxGeometry relative="1" as="geometry">
                        <mxPoint x="380" y="520" as="sourcePoint"/>
                        <mxPoint x="380" y="444" as="targetPoint"/>
                    </mxGeometry>
                </mxCell>
                <mxCell id="12" value="" style="shape=umlActor;verticalLabelPosition=bottom;verticalAlign=top;html=1;outlineConnect=0;" parent="1" vertex="1">
                    <mxGeometry x="365" y="496" width="30" height="60" as="geometry"/>
                </mxCell>
            </root>
        </mxGraphModel>
    </diagram>
</mxfile>